HIERARCHY
ROOT Hips
{
	OFFSET -0.001795 -0.223333 0.028219
	CHANNELS 6 Xposition Yposition Zposition Zrotation Yrotation Xrotation 
	JOINT LeftUpLeg
	{
		OFFSET 0.069520 -0.091406 -0.006815
		CHANNELS 3 Zrotation Yrotation Xrotation
		JOINT LeftLeg
		{
			OFFSET 0.034277 -0.375199 -0.004496
			CHANNELS 3 Zrotation Yrotation Xrotation
			JOINT LeftFoot
			{
				OFFSET -0.013596 -0.397961 -0.043693
				CHANNELS 3 Zrotation Yrotation Xrotation
				JOINT LeftToe
				{
					OFFSET 0.026358 -0.055791 0.119288
					CHANNELS 3 Zrotation Yrotation Xrotation
					End Site
					{
						OFFSET 0.000000 0.000000 0.000000
					}
				}
			}
		}
	}
	JOINT RightUpLeg
	{
		OFFSET -0.067670 -0.090522 -0.004320
		CHANNELS 3 Zrotation Yrotation Xrotation
		JOINT RightLeg
		{
			OFFSET -0.038290 -0.382569 -0.008850
			CHANNELS 3 Zrotation Yrotation Xrotation
			JOINT RightFoot
			{
				OFFSET 0.015774 -0.398415 -0.042312
				CHANNELS 3 Zrotation Yrotation Xrotation
				JOINT RightToe
				{
					OFFSET -0.025372 -0.048144 0.123348
					CHANNELS 3 Zrotation Yrotation Xrotation
					End Site
					{
						OFFSET 0.000000 0.000000 0.000000
					}
				}
			}
		}
	}
	JOINT Spine
	{
		OFFSET -0.002533 0.108963 -0.026696
		CHANNELS 3 Zrotation Yrotation Xrotation
		JOINT Spine1
		{
			OFFSET 0.005487 0.135180 0.001092
			CHANNELS 3 Zrotation Yrotation Xrotation
			JOINT Spine2
			{
				OFFSET 0.001457 0.052922 0.025425
				CHANNELS 3 Zrotation Yrotation Xrotation
				JOINT Neck
				{
					OFFSET -0.002778 0.213870 -0.042857
					CHANNELS 3 Zrotation Yrotation Xrotation
					JOINT Head
					{
						OFFSET 0.005152 0.064970 0.051349
						CHANNELS 3 Zrotation Yrotation Xrotation
						End Site
						{
							OFFSET 0.000000 0.000000 0.000000
						}
					}
				}
				JOINT LeftShoulder
				{
					OFFSET 0.078845 0.121749 -0.034090
					CHANNELS 3 Zrotation Yrotation Xrotation
					JOINT LeftArm
					{
						OFFSET 0.090977 0.030469 -0.008868
						CHANNELS 3 Zrotation Yrotation Xrotation
						JOINT LeftForeArm
						{
							OFFSET 0.259612 -0.012772 -0.027456
							CHANNELS 3 Zrotation Yrotation Xrotation
							JOINT LeftHand
							{
								OFFSET 0.249234 0.008986 -0.001171
								CHANNELS 3 Zrotation Yrotation Xrotation
								End Site
								{
									OFFSET 0.000000 0.000000 0.000000
								}
							}
						}
					}
				}
				JOINT RightShoulder
				{
					OFFSET -0.081759 0.118833 -0.038615
					CHANNELS 3 Zrotation Yrotation Xrotation
					JOINT RightArm
					{
						OFFSET -0.096012 0.032551 -0.009143
						CHANNELS 3 Zrotation Yrotation Xrotation
						JOINT RightForeArm
						{
							OFFSET -0.253742 -0.013329 -0.021401
							CHANNELS 3 Zrotation Yrotation Xrotation
							JOINT RightHand
							{
								OFFSET -0.255298 0.007772 -0.005559
								CHANNELS 3 Zrotation Yrotation Xrotation
								End Site
								{
									OFFSET 0.000000 0.000000 0.000000
								}
							}
						}
					}
				}
			}
		}
	}
}
MOTION
Frames: 10
Frame Time: 0.050000
-0.062346 0.935553 0.989746 1.288378 14.748891 6.881212 -0.369771 -0.437624 -5.215733 -2.629262 0.222888 -3.962227 -0.219917 3.175696 6.094205 0.000000 0.000000 0.000000 -4.119665 0.285975 -3.677324 -1.408473 -0.106377 -5.391681 2.674201 5.722512 2.821971 0.000000 0.000000 0.000000 9.386329 -0.194461 -1.952658 -1.749993 0.522370 3.879554 -4.851535 7.035567 1.835261 11.469117 -3.377132 -19.644497 0.000000 0.000000 0.000000 -30.225765 -24.719844 6.390810 -29.960865 -11.775615 1.259297 -33.474525 -74.730421 25.538590 0.000000 0.000000 0.000000 26.211512 14.012383 12.398421 21.315416 17.404572 -0.950724 -36.017065 49.005073 -12.470742 0.000000 0.000000 0.000000 
-0.064544 0.935761 0.990989 1.432427 14.936726 7.138493 -0.276167 -0.456311 -5.413450 -2.740232 0.224718 -3.996522 -0.353821 3.051401 6.289225 0.000000 0.000000 0.000000 -4.143311 0.297714 -3.865402 -1.317124 -0.110675 -5.347084 2.582717 5.540085 2.746549 0.000000 0.000000 0.000000 9.444893 -0.156248 -2.402288 -1.774375 0.518117 4.034047 -4.507431 6.964474 1.632512 11.358473 -3.452984 -19.060983 0.000000 0.000000 0.000000 -29.845763 -24.003274 5.935544 -30.016419 -10.668877 0.997625 -41.901467 -74.801046 32.234677 0.000000 0.000000 0.000000 25.461371 13.853006 12.043967 21.532815 16.623444 -0.999400 -35.574319 51.087732 -12.863592 0.000000 0.000000 0.000000 
-0.066956 0.935923 0.992307 1.641452 14.868321 7.238262 -0.155215 -0.447804 -5.316762 -3.037595 0.234871 -4.179434 -0.399776 3.096221 6.542104 0.000000 0.000000 0.000000 -4.251594 0.308829 -4.095010 -1.211714 -0.096562 -4.960858 2.556045 5.576337 2.490560 0.000000 0.000000 0.000000 9.322695 -0.138585 -2.536218 -1.710418 0.478490 4.146171 -4.461965 7.152057 1.336495 11.321490 -3.557117 -18.449943 0.000000 0.000000 0.000000 -29.470662 -23.409196 5.466922 -29.534375 -9.420834 0.724946 -48.127737 -74.629064 37.144434 0.000000 0.000000 0.000000 25.027890 13.288224 11.580112 21.792816 16.070604 -1.040921 -35.383882 53.822322 -13.538001 0.000000 0.000000 0.000000 
-0.069796 0.936016 0.993686 1.922611 14.824400 7.360465 -0.117037 -0.455320 -5.390979 -3.266659 0.242802 -4.074340 -0.429957 3.133369 6.722330 0.000000 0.000000 0.000000 -4.343028 0.320467 -4.337786 -1.220642 -0.072343 -4.553655 2.503406 5.577913 2.166932 0.000000 0.000000 0.000000 9.334863 -0.128389 -2.658499 -1.764797 0.498188 4.246278 -4.288743 7.189610 1.181427 11.427175 -3.789697 -17.764766 0.000000 0.000000 0.000000 -29.351186 -22.803833 5.078009 -28.638017 -7.899425 0.383066 -53.297016 -75.560396 42.144153 0.000000 0.000000 0.000000 24.588171 12.820032 11.129489 22.131449 15.412037 -1.098939 -36.361912 57.043037 -14.982851 0.000000 0.000000 0.000000 
-0.073112 0.935993 0.994904 2.225594 14.812598 7.464601 -0.192048 -0.439659 -5.234092 -3.286492 0.242186 -4.369062 -0.510798 3.123094 6.978821 0.000000 0.000000 0.000000 -4.621669 0.314004 -4.403588 -0.873734 -0.097202 -4.443662 2.476021 5.597591 1.950610 0.000000 0.000000 0.000000 9.164827 -0.097812 -2.904323 -1.826666 0.527141 4.271378 -4.184807 7.187183 0.993949 10.943326 -3.655812 -17.115705 0.000000 0.000000 0.000000 -29.054101 -21.822306 4.465549 -27.531426 -7.027917 0.174610 -53.755678 -76.324875 43.220865 0.000000 0.000000 0.000000 24.735910 12.547193 10.958515 22.369721 14.656580 -1.187229 -39.219996 60.596579 -17.810881 0.000000 0.000000 0.000000 
-0.076797 0.936024 0.995927 2.532244 14.988538 7.678417 -0.370978 -0.465283 -5.516857 -3.054730 0.234053 -4.149169 -0.622808 3.011784 7.108777 0.000000 0.000000 0.000000 -4.630751 0.328165 -4.676580 -0.954468 -0.073324 -4.142485 2.342646 5.397746 1.641731 0.000000 0.000000 0.000000 9.081095 -0.073180 -3.177753 -1.845931 0.501441 4.679862 -4.109208 7.575913 0.393705 10.769047 -3.721821 -16.216395 0.000000 0.000000 0.000000 -28.523221 -21.374034 3.992998 -26.331024 -6.335303 0.096135 -49.910725 -77.831432 40.981069 0.000000 0.000000 0.000000 24.636120 11.850296 10.612099 22.825787 14.116584 -1.264907 -41.829316 64.476142 -20.770350 0.000000 0.000000 0.000000 
-0.080739 0.936342 0.997028 2.781864 15.467388 7.606996 -0.457815 -0.462646 -5.506769 -2.806301 0.222166 -3.953921 -0.897344 2.657311 7.278269 0.000000 0.000000 0.000000 -4.661542 0.319796 -4.690352 -0.785653 -0.063889 -3.672162 2.128081 4.989435 1.338570 0.000000 0.000000 0.000000 8.957927 -0.075777 -3.124228 -1.836929 0.482088 4.721067 -3.862015 7.531427 0.125598 10.250007 -3.549088 -15.554653 0.000000 0.000000 0.000000 -28.283676 -20.489291 3.386783 -25.343721 -6.271790 0.087825 -43.720945 -78.910456 36.450138 0.000000 0.000000 0.000000 24.576812 11.586542 10.449318 23.374533 13.603546 -1.327393 -44.770577 68.120915 -24.257759 0.000000 0.000000 0.000000 
-0.084970 0.936462 0.998472 3.024963 15.934238 7.503558 -0.507719 -0.468424 -5.576715 -2.567273 0.209856 -3.524910 -1.125157 2.320621 7.323876 0.000000 0.000000 0.000000 -4.648193 0.298331 -4.424639 -0.635499 -0.075463 -3.623015 1.944841 4.618307 1.121049 0.000000 0.000000 0.000000 8.816199 -0.067563 -3.157716 -1.768976 0.411545 5.023187 -3.912772 7.886917 -0.343036 10.161055 -3.571926 -15.015441 0.000000 0.000000 0.000000 -28.047081 -20.200363 2.954158 -24.914595 -5.896356 0.089438 -43.769866 -79.903507 36.996652 0.000000 0.000000 0.000000 24.599874 10.880539 10.164655 24.007114 13.474570 -1.362510 -47.656432 71.991993 -28.059277 0.000000 0.000000 0.000000 
-0.089566 0.936731 1.000332 3.195521 16.495058 7.427224 -0.431579 -0.478717 -5.690482 -2.342387 0.195427 -3.092343 -1.402400 1.929102 7.416388 0.000000 0.000000 0.000000 -4.571086 0.286365 -4.292046 -0.382583 -0.088302 -3.365308 1.729774 4.164797 0.888826 0.000000 0.000000 0.000000 8.736904 -0.063335 -3.190468 -1.803249 0.393940 5.273202 -4.104821 8.158724 -0.738278 10.205235 -3.616738 -14.731917 0.000000 0.000000 0.000000 -27.628962 -19.699039 2.412701 -24.483135 -5.953281 0.159761 -49.385345 -80.746700 42.341947 0.000000 0.000000 0.000000 24.618645 10.580989 10.159132 24.522975 13.732634 -1.345518 -49.520627 74.539838 -30.680323 0.000000 0.000000 0.000000 
-0.094472 0.936941 1.002386 3.406698 16.999993 7.139883 -0.394875 -0.464828 -5.555974 -2.095220 0.178921 -2.649561 -1.659432 1.556594 7.484773 0.000000 0.000000 0.000000 -4.409802 0.251205 -3.722733 -0.319187 -0.099064 -3.467915 1.558003 3.790333 0.719073 0.000000 0.000000 0.000000 8.632880 -0.060067 -3.131221 -1.841703 0.392294 5.381378 -4.439018 8.401596 -0.841303 10.469934 -3.630705 -15.130874 0.000000 0.000000 0.000000 -27.448442 -19.716154 2.204818 -23.994688 -5.740279 0.171721 -58.121296 -81.344919 50.581875 0.000000 0.000000 0.000000 24.772086 10.440090 10.301641 24.588200 14.442761 -1.282774 -49.876292 76.081079 -31.697483 0.000000 0.000000 0.000000 
